<svg width="264" height="254" viewBox="0 0 264 254" fill="none" xmlns="http://www.w3.org/2000/svg">
<rect width="264" height="254" fill="#B6BFAE"/>
<path d="M96.166 91.4062H89.9551V90.6562H96.166V91.4062ZM93.0605 91.9453C93.5566 91.9492 93.9922 92.0293 94.3672 92.1855C94.7461 92.3379 95.0391 92.5566 95.2461 92.8418C95.457 93.123 95.5645 93.4531 95.5684 93.832C95.5645 94.2031 95.457 94.5312 95.2461 94.8164C95.0391 95.0977 94.7461 95.3164 94.3672 95.4727C93.9883 95.6289 93.5527 95.707 93.0605 95.707C92.5645 95.707 92.125 95.6289 91.7422 95.4727C91.3633 95.3164 91.0703 95.0977 90.8633 94.8164C90.6562 94.5312 90.5527 94.2031 90.5527 93.832C90.5527 93.4531 90.6562 93.123 90.8633 92.8418C91.0703 92.5566 91.3633 92.3379 91.7422 92.1855C92.1211 92.0293 92.5605 91.9492 93.0605 91.9453ZM93.0605 92.6602C92.7363 92.6602 92.4492 92.709 92.1992 92.8066C91.9531 92.9043 91.7637 93.041 91.6309 93.2168C91.498 93.3926 91.4316 93.5977 91.4316 93.832C91.4316 94.0586 91.498 94.2578 91.6309 94.4297C91.7637 94.6016 91.9531 94.7344 92.1992 94.8281C92.4492 94.9219 92.7363 94.9688 93.0605 94.9688C93.3809 94.9688 93.666 94.9219 93.916 94.8281C94.166 94.7344 94.3574 94.6016 94.4902 94.4297C94.627 94.2578 94.6973 94.0586 94.7012 93.832C94.6973 93.5977 94.627 93.3926 94.4902 93.2168C94.3574 93.041 94.166 92.9043 93.916 92.8066C93.666 92.709 93.3809 92.6602 93.0605 92.6602ZM98.0762 96.0469H97.1621V89.5312H98.0762V96.0469ZM99.6465 93.1992H97.8184V92.4258H99.6465V93.1992ZM98.0762 99.9492H97.1621V97.3711H91.2559V96.6211H98.0762V99.9492ZM93.5176 91.0664H92.6035V89.4844H93.5176V91.0664ZM108.049 91.3477H101.299V90.5859H108.049V91.3477ZM109.795 98.4727H100.303V97.7109H109.795V98.4727ZM103.572 98.0039H102.658V94.2773H103.572V98.0039ZM108.67 91.8047C108.666 92.3906 108.656 92.8887 108.641 93.2988C108.629 93.709 108.596 94.1738 108.541 94.6934C108.49 95.2129 108.408 95.7695 108.295 96.3633L107.393 96.2578C107.506 95.6992 107.588 95.168 107.639 94.6641C107.693 94.1562 107.727 93.709 107.738 93.3223C107.754 92.9316 107.764 92.4297 107.768 91.8164V91.7461V90.5859H108.67V91.7461V91.8047ZM106.162 98.0039H105.26V94.2773H106.162V98.0039ZM118.396 96.1172C119.139 96.1172 119.785 96.1914 120.336 96.3398C120.887 96.4883 121.311 96.707 121.607 96.9961C121.904 97.2852 122.053 97.6289 122.053 98.0273C122.053 98.4219 121.904 98.7598 121.607 99.041C121.311 99.3262 120.887 99.5449 120.336 99.6973C119.785 99.8496 119.139 99.9258 118.396 99.9258C117.654 99.9258 117.01 99.8496 116.463 99.6973C115.916 99.5449 115.494 99.3262 115.197 99.041C114.9 98.7598 114.752 98.4219 114.752 98.0273C114.752 97.6289 114.9 97.2852 115.197 96.9961C115.494 96.707 115.916 96.4883 116.463 96.3398C117.01 96.1914 117.654 96.1172 118.396 96.1172ZM118.396 96.8203C117.846 96.8203 117.363 96.8691 116.949 96.9668C116.539 97.0645 116.223 97.2051 116 97.3887C115.777 97.5684 115.666 97.7812 115.666 98.0273C115.666 98.2656 115.777 98.4746 116 98.6543C116.223 98.8301 116.539 98.9648 116.949 99.0586C117.363 99.1523 117.846 99.1992 118.396 99.1992C118.947 99.1992 119.428 99.1523 119.838 99.0586C120.252 98.9648 120.57 98.8301 120.793 98.6543C121.02 98.4746 121.135 98.2656 121.139 98.0273C121.135 97.7812 121.02 97.5684 120.793 97.3887C120.57 97.2051 120.252 97.0645 119.838 96.9668C119.428 96.8691 118.947 96.8203 118.396 96.8203ZM121.584 90.8203H114.822V90.0703H121.584V90.8203ZM123.178 95.1445H113.697V94.3945H123.178V95.1445ZM118.525 94.6289H117.623V92.3789H118.525V94.6289ZM121.971 90.9961C121.967 91.5508 121.947 92.0254 121.912 92.4199C121.881 92.8145 121.803 93.2461 121.678 93.7148L120.775 93.6094C120.896 93.1445 120.973 92.7246 121.004 92.3496C121.039 91.9746 121.057 91.5391 121.057 91.043V90.9492V90.0703H121.971V90.9492V90.9961ZM127.619 92.7305C127.619 93.4492 127.482 94.1582 127.209 94.8574C126.936 95.5566 126.568 96.1777 126.107 96.7207C125.65 97.2637 125.15 97.6719 124.607 97.9453L124.057 97.2188C124.553 96.9805 125.014 96.6211 125.439 96.1406C125.869 95.6562 126.213 95.1133 126.471 94.5117C126.729 93.9102 126.857 93.3164 126.857 92.7305V91.0078H127.619V92.7305ZM127.783 92.7305C127.783 93.3047 127.912 93.877 128.17 94.4473C128.428 95.0137 128.771 95.5195 129.201 95.9648C129.631 96.4102 130.1 96.7422 130.607 96.9609L130.092 97.6875C129.525 97.4297 129.01 97.0469 128.545 96.5391C128.084 96.0312 127.717 95.4473 127.443 94.7871C127.174 94.123 127.041 93.4375 127.045 92.7305V91.0078H127.783V92.7305ZM130.268 91.3711H124.396V90.6094H130.268V91.3711ZM132.646 99.9492H131.721V89.5312H132.646V99.9492ZM137.768 92.332C137.768 93.082 137.641 93.8145 137.387 94.5293C137.133 95.2441 136.783 95.8828 136.338 96.4453C135.896 97.0039 135.404 97.4297 134.861 97.7227L134.275 96.9844C134.779 96.7383 135.238 96.3691 135.652 95.877C136.07 95.3809 136.4 94.8223 136.643 94.2012C136.889 93.5801 137.014 92.957 137.018 92.332V90.4336H137.768V92.332ZM137.92 92.332C137.92 92.9297 138.041 93.5273 138.283 94.125C138.525 94.7188 138.852 95.25 139.262 95.7188C139.672 96.1875 140.123 96.543 140.615 96.7852L140.053 97.5234C139.514 97.2422 139.025 96.832 138.588 96.293C138.15 95.7539 137.805 95.1406 137.551 94.4531C137.301 93.7617 137.178 93.0547 137.182 92.332V90.4336H137.92V92.332ZM142.49 99.9492H141.576V89.5312H142.49V99.9492ZM144.236 94.5586H142.279V93.7617H144.236V94.5586ZM152.943 96.2578H152.029V89.5312H152.943V96.2578ZM154.514 93.2227H152.686V92.4375H154.514V93.2227ZM149.65 96.3281C150.354 96.3281 150.961 96.4004 151.473 96.5449C151.984 96.6895 152.377 96.8965 152.65 97.166C152.924 97.4355 153.061 97.7578 153.061 98.1328C153.061 98.5078 152.924 98.8281 152.65 99.0938C152.377 99.3594 151.984 99.5645 151.473 99.709C150.961 99.8535 150.354 99.9258 149.65 99.9258C148.943 99.9258 148.334 99.8535 147.822 99.709C147.314 99.5645 146.924 99.3594 146.65 99.0938C146.377 98.8281 146.24 98.5078 146.24 98.1328C146.24 97.7578 146.377 97.4355 146.65 97.166C146.924 96.8965 147.314 96.6895 147.822 96.5449C148.334 96.4004 148.943 96.3281 149.65 96.3281ZM149.65 97.0547C149.131 97.0547 148.684 97.0957 148.309 97.1777C147.938 97.2598 147.65 97.3828 147.447 97.5469C147.248 97.7109 147.15 97.9062 147.154 98.1328C147.15 98.3555 147.248 98.5488 147.447 98.7129C147.65 98.873 147.939 98.9961 148.314 99.082C148.689 99.168 149.135 99.2109 149.65 99.2109C150.166 99.2109 150.611 99.168 150.986 99.082C151.361 98.9961 151.648 98.873 151.848 98.7129C152.047 98.5488 152.146 98.3555 152.146 98.1328C152.146 97.9062 152.047 97.7109 151.848 97.5469C151.648 97.3828 151.361 97.2598 150.986 97.1777C150.611 97.0957 150.166 97.0547 149.65 97.0547ZM151.033 91.4531H144.822V90.7266H151.033V91.4531ZM147.928 91.9922C148.424 91.9922 148.859 92.0684 149.234 92.2207C149.613 92.373 149.906 92.5879 150.113 92.8652C150.324 93.1426 150.432 93.4648 150.436 93.832C150.432 94.2031 150.324 94.5273 150.113 94.8047C149.906 95.0781 149.613 95.291 149.234 95.4434C148.859 95.5957 148.424 95.6719 147.928 95.6719C147.428 95.6719 146.988 95.5957 146.609 95.4434C146.23 95.291 145.938 95.0781 145.73 94.8047C145.523 94.5273 145.42 94.2031 145.42 93.832C145.42 93.4648 145.523 93.1426 145.73 92.8652C145.938 92.5879 146.23 92.373 146.609 92.2207C146.988 92.0684 147.428 91.9922 147.928 91.9922ZM147.928 92.6836C147.604 92.6875 147.316 92.7383 147.066 92.8359C146.82 92.9297 146.631 93.0625 146.498 93.2344C146.365 93.4062 146.299 93.6055 146.299 93.832C146.299 94.0586 146.365 94.2559 146.498 94.4238C146.631 94.5918 146.82 94.7227 147.066 94.8164C147.316 94.9102 147.604 94.957 147.928 94.957C148.248 94.957 148.533 94.9102 148.783 94.8164C149.033 94.7227 149.225 94.5918 149.357 94.4238C149.494 94.2559 149.564 94.0586 149.568 93.832C149.564 93.6055 149.494 93.4062 149.357 93.2344C149.225 93.0625 149.033 92.9297 148.783 92.8359C148.533 92.7383 148.248 92.6875 147.928 92.6836ZM148.385 91.1484H147.471V89.4492H148.385V91.1484ZM164.697 96.4688H155.158V95.7188H164.697V96.4688ZM160.35 99.9492H159.447V96.0469H160.35V99.9492ZM157.291 91.4062H162.541V89.9648H163.467V94.4531H156.377V89.9648H157.291V91.4062ZM162.541 93.7031V92.1562H157.291V93.7031H162.541ZM174.178 99.9727H173.264V89.5312H174.178V99.9727ZM173.416 94.2305H171.061V93.4688H173.416V94.2305ZM166.818 96.6914C167.896 96.6875 168.777 96.666 169.461 96.627C170.145 96.584 170.83 96.5 171.518 96.375L171.623 97.1367C170.881 97.2578 170.152 97.3418 169.438 97.3887C168.727 97.4316 167.854 97.4531 166.818 97.4531H166.021V96.6914H166.818ZM170.885 91.2539H166.947V96.9492H166.021V90.4922H170.885V91.2539ZM170.428 94.1719H166.701V93.4219H170.428V94.1719ZM69.1543 123.648H68.2402V117.531H69.1543V123.648ZM70.7246 120.965H68.8965V120.18H70.7246V120.965ZM66.2949 118.199C66.2949 119.07 66.0996 119.859 65.709 120.566C65.3184 121.27 64.7539 121.871 64.0156 122.371C63.2812 122.871 62.4004 123.258 61.373 123.531L60.998 122.816C61.9043 122.57 62.6816 122.242 63.3301 121.832C63.9785 121.418 64.4746 120.938 64.8184 120.391C65.1621 119.844 65.334 119.25 65.334 118.609V118.199H66.2949ZM65.8379 118.961H61.4668V118.199H65.8379V118.961ZM69.1543 127.949H68.2402V124.879H62.334V124.129H69.1543V127.949ZM80.627 119.406H74.416V118.656H80.627V119.406ZM77.5215 119.945C78.0176 119.949 78.4531 120.029 78.8281 120.186C79.207 120.338 79.5 120.557 79.707 120.842C79.918 121.123 80.0254 121.453 80.0293 121.832C80.0254 122.203 79.918 122.531 79.707 122.816C79.5 123.098 79.207 123.316 78.8281 123.473C78.4492 123.629 78.0137 123.707 77.5215 123.707C77.0254 123.707 76.5859 123.629 76.2031 123.473C75.8242 123.316 75.5312 123.098 75.3242 122.816C75.1172 122.531 75.0137 122.203 75.0137 121.832C75.0137 121.453 75.1172 121.123 75.3242 120.842C75.5312 120.557 75.8242 120.338 76.2031 120.186C76.582 120.029 77.0215 119.949 77.5215 119.945ZM77.5215 120.66C77.1973 120.66 76.9102 120.709 76.6602 120.807C76.4141 120.904 76.2246 121.041 76.0918 121.217C75.959 121.393 75.8926 121.598 75.8926 121.832C75.8926 122.059 75.959 122.258 76.0918 122.43C76.2246 122.602 76.4141 122.734 76.6602 122.828C76.9102 122.922 77.1973 122.969 77.5215 122.969C77.8418 122.969 78.127 122.922 78.377 122.828C78.627 122.734 78.8184 122.602 78.9512 122.43C79.0879 122.258 79.1582 122.059 79.1621 121.832C79.1582 121.598 79.0879 121.393 78.9512 121.217C78.8184 121.041 78.627 120.904 78.377 120.807C78.127 120.709 77.8418 120.66 77.5215 120.66ZM82.5371 124.047H81.623V117.531H82.5371V124.047ZM84.1074 121.199H82.2793V120.426H84.1074V121.199ZM82.5371 127.949H81.623V125.371H75.7168V124.621H82.5371V127.949ZM77.9785 119.066H77.0645V117.484H77.9785V119.066ZM87.7285 119.605C87.7246 120.121 87.623 120.631 87.4238 121.135C87.2285 121.639 86.9453 122.094 86.5742 122.5C86.2031 122.902 85.7715 123.211 85.2793 123.426L84.7754 122.711C85.2207 122.52 85.6113 122.254 85.9473 121.914C86.2832 121.57 86.5391 121.197 86.7148 120.795C86.8945 120.393 86.9863 119.996 86.9902 119.605V118.188H87.7285V119.605ZM87.8691 119.605C87.873 119.992 87.9609 120.371 88.1328 120.742C88.3086 121.109 88.5566 121.441 88.877 121.738C89.2012 122.035 89.5801 122.266 90.0137 122.43L89.5332 123.133C89.0332 122.941 88.6035 122.666 88.2441 122.307C87.8848 121.943 87.6094 121.529 87.418 121.064C87.2305 120.6 87.1387 120.113 87.1426 119.605V118.188H87.8691V119.605ZM93.6113 123.977H92.7324V117.543H93.6113V123.977ZM93.0254 121.105H91.0332V120.344H93.0254V121.105ZM91.3496 123.648H90.4824V117.742H91.3496V123.648ZM90.166 124.211C90.8809 124.211 91.5 124.283 92.0234 124.428C92.5508 124.572 92.957 124.785 93.2422 125.066C93.5273 125.348 93.6699 125.684 93.6699 126.074C93.6699 126.461 93.5273 126.791 93.2422 127.064C92.957 127.342 92.5508 127.555 92.0234 127.703C91.5 127.852 90.8809 127.926 90.166 127.926C89.4473 127.926 88.8242 127.852 88.2969 127.703C87.7695 127.555 87.3652 127.342 87.084 127.064C86.8066 126.791 86.6699 126.461 86.6738 126.074C86.6699 125.684 86.8066 125.348 87.084 125.066C87.3652 124.785 87.7695 124.572 88.2969 124.428C88.8242 124.283 89.4473 124.211 90.166 124.211ZM90.166 124.914C89.6348 124.914 89.1758 124.961 88.7891 125.055C88.4023 125.148 88.1035 125.283 87.8926 125.459C87.6855 125.631 87.584 125.836 87.5879 126.074C87.584 126.309 87.6855 126.512 87.8926 126.684C88.1035 126.855 88.4023 126.986 88.7891 127.076C89.1758 127.166 89.6348 127.211 90.166 127.211C90.6895 127.211 91.1465 127.166 91.5371 127.076C91.9277 126.986 92.2266 126.855 92.4336 126.684C92.6445 126.512 92.752 126.309 92.7559 126.074C92.752 125.836 92.6445 125.631 92.4336 125.459C92.2266 125.283 91.9277 125.148 91.5371 125.055C91.1465 124.961 90.6895 124.914 90.166 124.914ZM99.084 125.5H98.1582V123.777H99.084V125.5ZM103.678 127.949H102.764V117.531H103.678V127.949ZM95.627 125.172C96.9238 125.16 98.0879 125.133 99.1191 125.09C100.15 125.047 101.135 124.965 102.072 124.844L102.143 125.547C101.107 125.715 100.031 125.826 98.9141 125.881C97.7969 125.932 96.6035 125.957 95.334 125.957L95.1934 125.172H95.627ZM101.803 119.57H95.416V118.82H101.803V119.57ZM98.6035 120.168C99.1035 120.168 99.5449 120.246 99.9277 120.402C100.311 120.559 100.605 120.785 100.812 121.082C101.02 121.375 101.123 121.715 101.123 122.102C101.123 122.484 101.02 122.82 100.812 123.109C100.605 123.398 100.309 123.621 99.9219 123.777C99.5391 123.934 99.0996 124.012 98.6035 124.012C98.1074 124.012 97.6699 123.934 97.291 123.777C96.916 123.621 96.623 123.398 96.4121 123.109C96.2051 122.82 96.1035 122.484 96.1074 122.102C96.1035 121.715 96.2051 121.375 96.4121 121.082C96.623 120.785 96.916 120.559 97.291 120.402C97.6699 120.246 98.1074 120.168 98.6035 120.168ZM98.6035 120.883C98.2832 120.883 98 120.934 97.7539 121.035C97.5078 121.137 97.3145 121.281 97.1738 121.469C97.0332 121.652 96.9629 121.863 96.9629 122.102C96.9629 122.34 97.0312 122.549 97.168 122.729C97.3047 122.904 97.498 123.043 97.748 123.145C97.998 123.242 98.2832 123.289 98.6035 123.285C98.9238 123.289 99.209 123.242 99.459 123.145C99.709 123.043 99.9023 122.904 100.039 122.729C100.176 122.549 100.244 122.34 100.244 122.102C100.244 121.863 100.176 121.652 100.039 121.469C99.9023 121.281 99.709 121.137 99.459 121.035C99.209 120.934 98.9238 120.883 98.6035 120.883ZM99.084 119.219H98.1582V117.543H99.084V119.219ZM108.916 118.293C109.455 118.293 109.938 118.396 110.363 118.604C110.789 118.811 111.121 119.1 111.359 119.471C111.598 119.842 111.717 120.266 111.717 120.742C111.717 121.219 111.598 121.643 111.359 122.014C111.121 122.385 110.789 122.674 110.363 122.881C109.938 123.088 109.455 123.191 108.916 123.191C108.373 123.191 107.887 123.088 107.457 122.881C107.031 122.674 106.699 122.385 106.461 122.014C106.223 121.643 106.104 121.219 106.104 120.742C106.104 120.266 106.223 119.842 106.461 119.471C106.699 119.1 107.031 118.811 107.457 118.604C107.887 118.396 108.373 118.293 108.916 118.293ZM108.916 119.102C108.549 119.102 108.221 119.17 107.932 119.307C107.643 119.443 107.416 119.639 107.252 119.893C107.088 120.143 107.006 120.426 107.006 120.742C107.006 121.062 107.088 121.346 107.252 121.592C107.416 121.838 107.643 122.031 107.932 122.172C108.221 122.312 108.549 122.383 108.916 122.383C109.279 122.383 109.605 122.312 109.895 122.172C110.188 122.031 110.414 121.838 110.574 121.592C110.734 121.346 110.814 121.062 110.814 120.742C110.814 120.426 110.734 120.143 110.574 119.893C110.414 119.639 110.188 119.443 109.895 119.307C109.605 119.17 109.279 119.102 108.916 119.102ZM114.049 127.973H113.135V117.531H114.049V127.973ZM105.564 124.891C106.865 124.895 108.082 124.875 109.215 124.832C110.348 124.789 111.424 124.691 112.443 124.539L112.514 125.219C111.779 125.355 111.016 125.457 110.223 125.523C109.43 125.586 108.688 125.627 107.996 125.646C107.309 125.666 106.541 125.676 105.693 125.676L105.564 124.891ZM127.707 123.15H126.213V117.402H127.707V123.15ZM122.053 124.604H126.219V123.613H127.707V127.961H120.582V123.613H122.053V124.604ZM126.219 126.754V125.764H122.053V126.754H126.219ZM121.865 117.854C122.412 117.854 122.908 117.961 123.354 118.176C123.799 118.387 124.148 118.686 124.402 119.072C124.656 119.459 124.783 119.896 124.783 120.385C124.783 120.861 124.656 121.289 124.402 121.668C124.148 122.047 123.799 122.346 123.354 122.564C122.908 122.779 122.412 122.887 121.865 122.887C121.314 122.887 120.816 122.779 120.371 122.564C119.93 122.346 119.582 122.047 119.328 121.668C119.074 121.289 118.947 120.861 118.947 120.385C118.947 119.893 119.074 119.455 119.328 119.072C119.582 118.686 119.93 118.387 120.371 118.176C120.816 117.961 121.314 117.854 121.865 117.854ZM121.865 119.102C121.58 119.102 121.326 119.154 121.104 119.26C120.885 119.361 120.713 119.51 120.588 119.705C120.467 119.896 120.406 120.123 120.406 120.385C120.406 120.646 120.467 120.873 120.588 121.064C120.713 121.252 120.885 121.398 121.104 121.504C121.326 121.605 121.58 121.658 121.865 121.662C122.143 121.658 122.391 121.605 122.609 121.504C122.828 121.398 122.998 121.25 123.119 121.059C123.24 120.867 123.301 120.643 123.301 120.385C123.301 120.127 123.24 119.9 123.119 119.705C122.998 119.51 122.828 119.361 122.609 119.26C122.391 119.154 122.143 119.102 121.865 119.102ZM130.443 128.277H128.955L131.686 118.117H133.186L130.443 128.277ZM139.215 124.375H137.744V122.822H139.215V124.375ZM143.328 123.045H133.643V121.955H143.328V123.045ZM139.209 118.691H137.727V117.402H139.209V118.691ZM138.945 118.967C138.945 119.482 138.773 119.934 138.43 120.32C138.086 120.707 137.574 121.018 136.895 121.252C136.219 121.482 135.396 121.623 134.428 121.674L134.023 120.572C134.844 120.533 135.523 120.438 136.062 120.285C136.605 120.129 137.002 119.938 137.252 119.711C137.506 119.484 137.633 119.236 137.633 118.967V118.75H138.945V118.967ZM139.309 118.967C139.305 119.236 139.43 119.484 139.684 119.711C139.938 119.938 140.336 120.129 140.879 120.285C141.422 120.438 142.107 120.533 142.936 120.572L142.502 121.674C141.537 121.623 140.717 121.48 140.041 121.246C139.369 121.012 138.859 120.703 138.512 120.32C138.164 119.934 137.992 119.482 137.996 118.967V118.75H139.309V118.967ZM142.408 119.354H134.557V118.246H142.408V119.354ZM142.162 126.314H136.221V127.352H134.75V125.312H140.686V124.791H134.744V123.719H142.162V126.314ZM142.443 128.002H134.75V126.906H142.443V128.002ZM152.006 119.096H145.186V117.9H152.006V119.096ZM153.746 122.928H143.996V121.727H153.746V122.928ZM152.592 118.756C152.592 119.373 152.572 119.924 152.533 120.408C152.498 120.893 152.408 121.443 152.264 122.061L150.764 122.02C150.865 121.609 150.939 121.221 150.986 120.854C151.037 120.482 151.068 120.154 151.08 119.869C151.092 119.584 151.1 119.242 151.104 118.844V118.756V117.9H152.592V118.756ZM152.557 127.961H145.139V124.064H152.557V127.961ZM146.615 126.76H151.068V125.225H146.615V126.76ZM166.338 128.078H164.896V117.402H166.338V128.078ZM165.289 122.746H163.479V121.533H165.289V122.746ZM163.9 127.562H162.5V117.596H163.9V127.562ZM159.066 124.756H157.572V118.598H159.066V124.756ZM158.287 124.182C158.904 124.182 159.504 124.16 160.086 124.117C160.672 124.074 161.273 123.992 161.891 123.871L162.049 125.16C161.373 125.277 160.727 125.361 160.109 125.412C159.496 125.459 158.889 125.48 158.287 125.477H157.572V124.182H158.287ZM175.461 120.051H172.285V118.844H175.461V120.051ZM175.461 122.365H172.285V121.17H175.461V122.365ZM176.498 128.078H175.01V125.377H169.174V124.193H176.498V128.078ZM176.498 123.719H175.01V117.402H176.498V123.719ZM170.486 117.982C171.01 117.982 171.486 118.094 171.916 118.316C172.35 118.539 172.689 118.852 172.936 119.254C173.182 119.652 173.307 120.1 173.311 120.596C173.307 121.104 173.182 121.559 172.936 121.961C172.689 122.363 172.352 122.678 171.922 122.904C171.492 123.131 171.014 123.244 170.486 123.244C169.951 123.244 169.467 123.131 169.033 122.904C168.604 122.678 168.264 122.363 168.014 121.961C167.768 121.555 167.645 121.1 167.645 120.596C167.645 120.1 167.768 119.652 168.014 119.254C168.264 118.852 168.604 118.539 169.033 118.316C169.467 118.094 169.951 117.982 170.486 117.982ZM170.486 119.248C170.209 119.248 169.963 119.301 169.748 119.406C169.533 119.512 169.365 119.668 169.244 119.875C169.123 120.082 169.062 120.322 169.062 120.596C169.062 120.877 169.123 121.121 169.244 121.328C169.365 121.535 169.533 121.695 169.748 121.809C169.963 121.922 170.209 121.979 170.486 121.979C170.752 121.979 170.99 121.922 171.201 121.809C171.412 121.695 171.578 121.535 171.699 121.328C171.82 121.121 171.881 120.877 171.881 120.596C171.881 120.322 171.82 120.082 171.699 119.875C171.578 119.668 171.41 119.512 171.195 119.406C170.984 119.301 170.748 119.248 170.486 119.248ZM189.248 127.949H188.322V117.531H189.248V127.949ZM190.83 122.605H188.943V121.832H190.83V122.605ZM184.162 118.668C184.158 119.551 184.078 120.391 183.922 121.188C183.77 121.984 183.512 122.758 183.148 123.508C182.789 124.258 182.307 124.953 181.701 125.594L180.963 125.066C181.525 124.492 181.979 123.869 182.322 123.197C182.666 122.521 182.914 121.818 183.066 121.088C183.223 120.357 183.303 119.586 183.307 118.773V118.668H184.162ZM183.635 119.441H181.291V118.668H183.635V119.441ZM187.021 118.668C187.018 119.613 186.953 120.516 186.828 121.375C186.707 122.234 186.475 123.09 186.131 123.941C185.791 124.793 185.314 125.574 184.701 126.285L183.951 125.77C184.521 125.129 184.971 124.422 185.299 123.648C185.627 122.875 185.852 122.086 185.973 121.281C186.098 120.473 186.162 119.629 186.166 118.75V118.668H187.021ZM186.529 119.441H184.49V118.668H186.529V119.441ZM194.932 120.73C194.932 121.449 194.795 122.158 194.521 122.857C194.248 123.557 193.881 124.178 193.42 124.721C192.963 125.264 192.463 125.672 191.92 125.945L191.369 125.219C191.865 124.98 192.326 124.621 192.752 124.141C193.182 123.656 193.525 123.113 193.783 122.512C194.041 121.91 194.17 121.316 194.17 120.73V119.008H194.932V120.73ZM195.096 120.73C195.096 121.305 195.225 121.877 195.482 122.447C195.74 123.014 196.084 123.52 196.514 123.965C196.943 124.41 197.412 124.742 197.92 124.961L197.404 125.688C196.838 125.43 196.322 125.047 195.857 124.539C195.396 124.031 195.029 123.447 194.756 122.787C194.486 122.123 194.354 121.438 194.357 120.73V119.008H195.096V120.73ZM197.58 119.371H191.709V118.609H197.58V119.371ZM199.959 127.949H199.033V117.531H199.959V127.949ZM202.537 129.402H201.67L202.314 126.215H203.451L202.537 129.402ZM54.4678 148.395H58.6865C59.4434 148.395 60.0854 148.509 60.6128 148.739C61.1401 148.963 61.5356 149.281 61.7993 149.691C62.0679 150.101 62.2021 150.577 62.2021 151.119C62.2021 151.524 62.1191 151.883 61.9531 152.196C61.792 152.503 61.5674 152.76 61.2793 152.965C60.9912 153.165 60.6616 153.307 60.2905 153.39V153.492C60.6958 153.512 61.0767 153.629 61.4331 153.844C61.7896 154.059 62.0752 154.359 62.29 154.745C62.5049 155.125 62.6123 155.57 62.6123 156.078C62.6123 156.644 62.4707 157.147 62.1875 157.586C61.9092 158.026 61.4966 158.373 60.9497 158.626C60.4028 158.875 59.7412 159 58.9648 159H54.4678V148.395ZM58.5181 157.191C58.9331 157.191 59.2749 157.137 59.5435 157.03C59.8169 156.917 60.0171 156.764 60.144 156.568C60.2759 156.368 60.3394 156.131 60.3345 155.858C60.3394 155.565 60.2686 155.304 60.1221 155.074C59.9805 154.84 59.7754 154.659 59.5068 154.532C59.2432 154.405 58.9331 154.342 58.5767 154.342H56.665V157.191H58.5181ZM58.3569 152.84C58.6646 152.835 58.9404 152.779 59.1846 152.672C59.4336 152.56 59.6265 152.401 59.7632 152.196C59.9048 151.991 59.9756 151.749 59.9756 151.471C59.9756 151.212 59.9121 150.985 59.7852 150.79C59.6631 150.594 59.4824 150.445 59.2432 150.343C59.0088 150.235 58.728 150.182 58.4009 150.182H56.665V152.84H58.3569ZM63.9673 151.046H66.1353V159H63.9673V151.046ZM65.0513 149.999C64.8315 149.999 64.6313 149.95 64.4507 149.852C64.2749 149.75 64.1333 149.615 64.0259 149.449C63.9185 149.283 63.8647 149.1 63.8647 148.9C63.8647 148.705 63.9185 148.521 64.0259 148.351C64.1333 148.18 64.2773 148.045 64.458 147.948C64.6387 147.85 64.8364 147.801 65.0513 147.801C65.2612 147.801 65.4565 147.85 65.6372 147.948C65.8179 148.045 65.9619 148.18 66.0693 148.351C66.1768 148.521 66.2305 148.705 66.2305 148.9C66.2305 149.1 66.1768 149.283 66.0693 149.449C65.9619 149.615 65.8179 149.75 65.6372 149.852C65.4565 149.95 65.2612 149.999 65.0513 149.999ZM71.3867 162.149C70.6689 162.149 70.0415 162.047 69.5044 161.842C68.9673 161.637 68.5449 161.346 68.2373 160.97C67.9346 160.594 67.7612 160.155 67.7173 159.652H69.8486C69.9121 159.964 70.0806 160.196 70.354 160.348C70.6323 160.504 70.9937 160.58 71.438 160.575C71.9653 160.58 72.3755 160.458 72.6685 160.208C72.9663 159.964 73.1177 159.581 73.1226 159.059V157.594H73.0273L72.998 157.652C72.8711 157.892 72.7124 158.102 72.522 158.282C72.3364 158.458 72.0923 158.604 71.7896 158.722C71.4917 158.834 71.145 158.89 70.7495 158.89C70.1343 158.89 69.5825 158.744 69.0942 158.451C68.606 158.158 68.2202 157.718 67.937 157.132C67.6587 156.546 67.5195 155.826 67.5195 154.972C67.5195 154.107 67.6636 153.373 67.9517 152.767C68.2397 152.157 68.6255 151.7 69.1089 151.397C69.5972 151.095 70.144 150.943 70.7495 150.943C71.1401 150.943 71.4819 151.004 71.7749 151.126C72.0679 151.249 72.3022 151.405 72.478 151.595C72.6587 151.781 72.8174 152 72.9541 152.254C72.9785 152.289 73.0005 152.33 73.02 152.379H73.1079V151.046H75.2612V159.088C75.2612 159.747 75.0977 160.306 74.7705 160.765C74.4434 161.224 73.9893 161.568 73.4082 161.798C72.8271 162.032 72.1533 162.149 71.3867 162.149ZM71.4233 157.25C71.7847 157.25 72.0923 157.159 72.3462 156.979C72.6001 156.798 72.793 156.539 72.9248 156.202C73.0615 155.865 73.1299 155.462 73.1299 154.994C73.1299 154.52 73.0615 154.11 72.9248 153.763C72.793 153.412 72.6001 153.143 72.3462 152.958C72.0923 152.772 71.7847 152.679 71.4233 152.679C71.062 152.679 70.7544 152.774 70.5005 152.965C70.2515 153.155 70.061 153.426 69.9292 153.778C69.7974 154.129 69.7314 154.535 69.7314 154.994C69.7314 155.458 69.7974 155.858 69.9292 156.195C70.0659 156.532 70.2588 156.793 70.5078 156.979C70.7568 157.159 71.062 157.25 71.4233 157.25ZM80.4688 148.395H84.6875C85.4443 148.395 86.0864 148.509 86.6138 148.739C87.1411 148.963 87.5366 149.281 87.8003 149.691C88.0688 150.101 88.2031 150.577 88.2031 151.119C88.2031 151.524 88.1201 151.883 87.9541 152.196C87.793 152.503 87.5684 152.76 87.2803 152.965C86.9922 153.165 86.6626 153.307 86.2915 153.39V153.492C86.6968 153.512 87.0776 153.629 87.4341 153.844C87.7905 154.059 88.0762 154.359 88.291 154.745C88.5059 155.125 88.6133 155.57 88.6133 156.078C88.6133 156.644 88.4717 157.147 88.1885 157.586C87.9102 158.026 87.4976 158.373 86.9507 158.626C86.4038 158.875 85.7422 159 84.9658 159H80.4688V148.395ZM84.519 157.191C84.9341 157.191 85.2759 157.137 85.5444 157.03C85.8179 156.917 86.0181 156.764 86.145 156.568C86.2769 156.368 86.3403 156.131 86.3354 155.858C86.3403 155.565 86.2695 155.304 86.123 155.074C85.9814 154.84 85.7764 154.659 85.5078 154.532C85.2441 154.405 84.9341 154.342 84.5776 154.342H82.666V157.191H84.519ZM84.3579 152.84C84.6655 152.835 84.9414 152.779 85.1855 152.672C85.4346 152.56 85.6274 152.401 85.7642 152.196C85.9058 151.991 85.9766 151.749 85.9766 151.471C85.9766 151.212 85.9131 150.985 85.7861 150.79C85.6641 150.594 85.4834 150.445 85.2441 150.343C85.0098 150.235 84.729 150.182 84.4019 150.182H82.666V152.84H84.3579ZM89.9683 151.046H92.063V152.43H92.1509C92.2925 151.947 92.5342 151.578 92.876 151.324C93.2178 151.065 93.6133 150.934 94.0625 150.929C94.375 150.938 94.6069 150.963 94.7583 151.002V152.936C94.6509 152.901 94.5093 152.875 94.3335 152.855C94.1577 152.831 93.9893 152.818 93.8281 152.818C93.5059 152.818 93.2178 152.889 92.9639 153.031C92.71 153.172 92.5073 153.37 92.356 153.624C92.2095 153.873 92.1362 154.159 92.1362 154.481V159H89.9683V151.046ZM99.1309 159.154C98.335 159.154 97.6416 158.983 97.0508 158.641C96.4648 158.299 96.0132 157.821 95.6958 157.206C95.3784 156.585 95.2197 155.868 95.2197 155.052C95.2197 154.232 95.3784 153.514 95.6958 152.899C96.0132 152.279 96.4648 151.798 97.0508 151.456C97.6416 151.114 98.335 150.943 99.1309 150.943C99.917 150.943 100.605 151.114 101.196 151.456C101.792 151.798 102.246 152.279 102.559 152.899C102.871 153.514 103.027 154.232 103.027 155.052C103.027 155.868 102.871 156.585 102.559 157.206C102.246 157.821 101.792 158.299 101.196 158.641C100.605 158.983 99.917 159.154 99.1309 159.154ZM99.1455 157.477C99.502 157.477 99.8071 157.372 100.061 157.162C100.315 156.952 100.505 156.664 100.632 156.297C100.759 155.926 100.823 155.506 100.823 155.038C100.823 154.564 100.759 154.144 100.632 153.778C100.505 153.412 100.315 153.124 100.061 152.914C99.8071 152.704 99.502 152.599 99.1455 152.599C98.7744 152.599 98.4595 152.704 98.2007 152.914C97.9419 153.124 97.7466 153.412 97.6147 153.778C97.4878 154.144 97.4219 154.564 97.417 155.038C97.4219 155.506 97.4878 155.926 97.6147 156.297C97.7466 156.664 97.9419 156.952 98.2007 157.162C98.4595 157.372 98.7744 157.477 99.1455 157.477ZM108.586 152.672H103.826V151.046H108.586V152.672ZM107.092 149.142V156.554C107.092 156.759 107.122 156.92 107.18 157.037C107.244 157.149 107.329 157.23 107.437 157.279C107.549 157.328 107.686 157.352 107.847 157.352C107.92 157.357 108.01 157.357 108.118 157.352C108.225 157.347 108.333 157.342 108.44 157.337L108.696 157.315V159.029C108.364 159.083 107.986 159.11 107.561 159.11C107.024 159.11 106.558 159.029 106.162 158.868C105.767 158.702 105.459 158.453 105.239 158.121C105.024 157.784 104.917 157.362 104.917 156.854V149.142H107.092ZM112.292 159H110.125V148.395H112.234V152.438H112.322C112.507 151.964 112.8 151.598 113.201 151.339C113.606 151.075 114.104 150.943 114.695 150.943C115.251 150.943 115.737 151.063 116.152 151.302C116.567 151.542 116.887 151.886 117.112 152.335C117.336 152.784 117.449 153.316 117.449 153.932V159H115.281V154.305C115.281 153.978 115.225 153.697 115.112 153.463C115 153.229 114.834 153.05 114.614 152.928C114.399 152.806 114.143 152.745 113.845 152.745C113.538 152.745 113.269 152.811 113.04 152.943C112.81 153.07 112.627 153.258 112.49 153.507C112.358 153.756 112.292 154.051 112.292 154.393V159ZM122.744 159.154C121.938 159.154 121.238 158.988 120.642 158.656C120.051 158.324 119.597 157.85 119.28 157.235C118.962 156.62 118.804 155.897 118.804 155.067C118.804 154.251 118.962 153.531 119.28 152.906C119.602 152.281 120.051 151.798 120.627 151.456C121.208 151.114 121.885 150.943 122.656 150.943C123.369 150.943 124.006 151.095 124.568 151.397C125.129 151.695 125.571 152.147 125.894 152.752C126.221 153.358 126.384 154.098 126.384 154.972V155.58H119.69V154.225H124.341C124.336 153.907 124.263 153.622 124.121 153.368C123.984 153.114 123.792 152.916 123.542 152.774C123.293 152.633 123.01 152.562 122.693 152.562C122.356 152.562 122.056 152.64 121.792 152.796C121.528 152.948 121.321 153.158 121.169 153.426C121.023 153.695 120.947 153.988 120.942 154.305V155.58C120.942 155.98 121.018 156.327 121.169 156.62C121.326 156.908 121.541 157.132 121.814 157.293C122.087 157.455 122.407 157.535 122.773 157.535C123.018 157.53 123.24 157.494 123.44 157.425C123.64 157.357 123.809 157.267 123.945 157.154C124.082 157.037 124.189 156.9 124.268 156.744H126.333C126.226 157.232 126.013 157.657 125.696 158.019C125.378 158.38 124.968 158.661 124.465 158.861C123.962 159.056 123.389 159.154 122.744 159.154ZM127.747 151.046H129.841V152.43H129.929C130.071 151.947 130.312 151.578 130.654 151.324C130.996 151.065 131.392 150.934 131.841 150.929C132.153 150.938 132.385 150.963 132.537 151.002V152.936C132.429 152.901 132.288 152.875 132.112 152.855C131.936 152.831 131.768 152.818 131.606 152.818C131.284 152.818 130.996 152.889 130.742 153.031C130.488 153.172 130.286 153.37 130.134 153.624C129.988 153.873 129.915 154.159 129.915 154.481V159H127.747V151.046ZM139.433 154.359H137.429V153.598H139.433V154.359ZM142.093 159.949H141.203V149.531H142.093V159.949ZM139.996 159.422H139.117V149.754H139.996V159.422ZM135.531 150.41C135.98 150.41 136.373 150.559 136.708 150.855C137.048 151.152 137.312 151.574 137.5 152.121C137.687 152.664 137.781 153.301 137.781 154.031C137.781 154.762 137.687 155.4 137.5 155.947C137.312 156.49 137.048 156.91 136.708 157.207C136.373 157.504 135.98 157.652 135.531 157.652C135.082 157.652 134.689 157.504 134.353 157.207C134.021 156.91 133.761 156.49 133.574 155.947C133.386 155.4 133.292 154.762 133.292 154.031C133.292 153.301 133.386 152.664 133.574 152.121C133.761 151.574 134.021 151.152 134.353 150.855C134.689 150.559 135.082 150.41 135.531 150.41ZM135.531 151.277C135.25 151.277 135.005 151.389 134.798 151.611C134.591 151.834 134.431 152.154 134.318 152.572C134.208 152.986 134.156 153.473 134.16 154.031C134.156 154.59 134.208 155.076 134.318 155.49C134.431 155.9 134.591 156.219 134.798 156.445C135.009 156.668 135.253 156.777 135.531 156.773C135.812 156.777 136.058 156.668 136.269 156.445C136.48 156.219 136.64 155.9 136.75 155.49C136.859 155.076 136.914 154.59 136.914 154.031C136.914 153.473 136.859 152.986 136.75 152.572C136.64 152.154 136.48 151.834 136.269 151.611C136.058 151.389 135.812 151.277 135.531 151.277ZM151.714 153.844H148.785V153.094H151.714V153.844ZM147.027 152.332C147.023 153.086 146.894 153.824 146.64 154.547C146.39 155.266 146.044 155.906 145.603 156.469C145.162 157.031 144.667 157.457 144.121 157.746L143.523 157.008C144.027 156.762 144.488 156.393 144.906 155.9C145.328 155.404 145.66 154.844 145.902 154.219C146.144 153.59 146.265 152.961 146.265 152.332V150.434H147.027V152.332ZM147.203 152.332C147.203 152.949 147.324 153.559 147.566 154.16C147.808 154.762 148.136 155.297 148.55 155.766C148.964 156.23 149.421 156.578 149.921 156.809L149.371 157.559C148.816 157.273 148.318 156.863 147.876 156.328C147.435 155.789 147.087 155.174 146.833 154.482C146.58 153.787 146.453 153.07 146.453 152.332V150.434H147.203V152.332ZM152.171 159.973H151.257V149.531H152.171V159.973ZM160.609 155.754H159.695V154.43H160.609V155.754ZM165.05 156.527H164.125V149.543H165.05V156.527ZM166.609 153.469H164.664V152.695H166.609V153.469ZM156.953 155.461C158.253 155.461 159.431 155.441 160.486 155.402C161.541 155.363 162.539 155.273 163.48 155.133L163.562 155.801C162.558 155.977 161.521 156.09 160.451 156.141C159.38 156.191 158.222 156.215 156.976 156.211L156.871 155.461H156.953ZM165.05 159.949H164.125V157.781H158.148V157.043H165.05V159.949ZM163.164 151.195H157.128V150.492H163.164V151.195ZM160.14 151.594C160.628 151.594 161.056 151.656 161.423 151.781C161.794 151.906 162.08 152.084 162.279 152.314C162.482 152.545 162.585 152.816 162.589 153.129C162.585 153.449 162.482 153.725 162.279 153.955C162.08 154.186 161.796 154.365 161.429 154.494C161.062 154.623 160.632 154.688 160.14 154.688C159.652 154.688 159.224 154.623 158.857 154.494C158.494 154.365 158.21 154.186 158.007 153.955C157.804 153.721 157.703 153.445 157.703 153.129C157.703 152.816 157.804 152.545 158.007 152.314C158.21 152.084 158.496 151.906 158.863 151.781C159.23 151.656 159.656 151.594 160.14 151.594ZM160.14 152.25C159.824 152.246 159.546 152.279 159.308 152.35C159.074 152.416 158.894 152.518 158.769 152.654C158.644 152.787 158.582 152.945 158.582 153.129C158.582 153.309 158.644 153.467 158.769 153.604C158.894 153.74 159.074 153.848 159.308 153.926C159.546 154 159.824 154.035 160.14 154.031C160.457 154.035 160.732 154 160.966 153.926C161.205 153.848 161.388 153.74 161.517 153.604C161.646 153.467 161.71 153.309 161.71 153.129C161.71 152.945 161.646 152.787 161.517 152.654C161.388 152.518 161.205 152.416 160.966 152.35C160.732 152.279 160.457 152.246 160.14 152.25ZM160.609 150.855H159.695V149.449H160.609V150.855ZM175.89 157.16H174.976V149.543H175.89V157.16ZM176.218 159.727H169.164V158.953H176.218V159.727ZM170.078 159.211H169.164V156.387H170.078V159.211ZM170.265 150.27C170.781 150.27 171.246 150.379 171.66 150.598C172.074 150.816 172.4 151.119 172.638 151.506C172.876 151.893 172.996 152.332 172.996 152.824C172.996 153.32 172.876 153.764 172.638 154.154C172.4 154.541 172.074 154.844 171.66 155.062C171.246 155.281 170.781 155.391 170.265 155.391C169.75 155.391 169.285 155.281 168.871 155.062C168.457 154.844 168.13 154.541 167.892 154.154C167.654 153.764 167.535 153.32 167.535 152.824C167.535 152.332 167.654 151.893 167.892 151.506C168.13 151.119 168.457 150.816 168.871 150.598C169.285 150.379 169.75 150.27 170.265 150.27ZM170.265 151.078C169.917 151.078 169.603 151.152 169.322 151.301C169.044 151.449 168.826 151.656 168.666 151.922C168.509 152.188 168.433 152.488 168.437 152.824C168.433 153.164 168.509 153.469 168.666 153.738C168.826 154.004 169.044 154.211 169.322 154.359C169.603 154.508 169.917 154.582 170.265 154.582C170.609 154.582 170.919 154.508 171.197 154.359C171.474 154.211 171.693 154.004 171.853 153.738C172.013 153.469 172.093 153.164 172.093 152.824C172.093 152.488 172.013 152.188 171.853 151.922C171.693 151.656 171.474 151.449 171.197 151.301C170.919 151.152 170.609 151.078 170.265 151.078ZM185.722 159.949H184.808V149.531H185.722V159.949ZM187.468 154.594H185.511V153.832H187.468V154.594ZM183.8 151.969H177.601V151.207H183.8V151.969ZM180.753 152.836C181.238 152.836 181.673 152.938 182.06 153.141C182.447 153.344 182.75 153.627 182.968 153.99C183.191 154.354 183.304 154.766 183.308 155.227C183.304 155.691 183.191 156.105 182.968 156.469C182.75 156.828 182.447 157.109 182.06 157.312C181.673 157.516 181.238 157.617 180.753 157.617C180.265 157.617 179.826 157.516 179.435 157.312C179.048 157.109 178.746 156.828 178.527 156.469C178.308 156.105 178.199 155.691 178.199 155.227C178.199 154.766 178.308 154.354 178.527 153.99C178.746 153.627 179.048 153.344 179.435 153.141C179.826 152.938 180.265 152.836 180.753 152.836ZM180.753 153.609C180.433 153.609 180.146 153.678 179.892 153.814C179.638 153.951 179.439 154.145 179.294 154.395C179.15 154.641 179.078 154.918 179.078 155.227C179.078 155.539 179.15 155.816 179.294 156.059C179.439 156.301 179.638 156.492 179.892 156.633C180.146 156.77 180.433 156.836 180.753 156.832C181.07 156.836 181.355 156.77 181.609 156.633C181.867 156.492 182.066 156.301 182.207 156.059C182.351 155.816 182.425 155.539 182.429 155.227C182.425 154.918 182.351 154.641 182.207 154.395C182.066 154.145 181.867 153.951 181.609 153.814C181.355 153.678 181.07 153.609 180.753 153.609ZM181.199 151.559H180.285V149.66H181.199V151.559ZM194.218 154.055H192.167V153.27H194.218V154.055ZM190.96 152.531C190.96 153.246 190.861 153.943 190.662 154.623C190.462 155.299 190.175 155.906 189.8 156.445C189.429 156.98 188.996 157.398 188.5 157.699L187.914 157.008C188.382 156.734 188.792 156.359 189.144 155.883C189.496 155.406 189.765 154.879 189.953 154.301C190.14 153.719 190.234 153.129 190.234 152.531V150.516H190.96V152.531ZM191.125 152.496C191.125 153.055 191.212 153.611 191.388 154.166C191.564 154.717 191.816 155.221 192.144 155.678C192.476 156.135 192.867 156.496 193.316 156.762L192.789 157.477C192.296 157.18 191.871 156.768 191.511 156.24C191.152 155.713 190.878 155.125 190.691 154.477C190.507 153.828 190.417 153.168 190.421 152.496V150.516H191.125V152.496ZM196.96 159.949H196.07V149.531H196.96V159.949ZM194.804 159.422H193.937V149.754H194.804V159.422ZM201.671 158.027H200.769V154.91H201.671V158.027ZM205.574 158.027H204.648V154.91H205.574V158.027ZM207.941 158.613H198.402V157.84H207.941V158.613ZM203.148 150.188C203.886 150.191 204.542 150.305 205.117 150.527C205.695 150.746 206.146 151.061 206.47 151.471C206.794 151.877 206.957 152.344 206.957 152.871C206.957 153.402 206.794 153.869 206.47 154.271C206.146 154.674 205.695 154.986 205.117 155.209C204.542 155.432 203.886 155.543 203.148 155.543C202.41 155.543 201.751 155.432 201.173 155.209C200.599 154.986 200.15 154.674 199.826 154.271C199.501 153.869 199.339 153.402 199.339 152.871C199.339 152.344 199.501 151.877 199.826 151.471C200.15 151.061 200.599 150.746 201.173 150.527C201.751 150.305 202.41 150.191 203.148 150.188ZM203.148 150.949C202.582 150.945 202.076 151.023 201.63 151.184C201.189 151.34 200.845 151.564 200.599 151.857C200.353 152.15 200.23 152.488 200.23 152.871C200.23 153.254 200.353 153.592 200.599 153.885C200.845 154.178 201.189 154.406 201.63 154.57C202.076 154.734 202.582 154.816 203.148 154.816C203.71 154.816 204.212 154.734 204.654 154.57C205.095 154.406 205.441 154.178 205.691 153.885C205.941 153.592 206.066 153.254 206.066 152.871C206.066 152.488 205.941 152.15 205.691 151.857C205.441 151.564 205.095 151.34 204.654 151.184C204.212 151.023 203.71 150.945 203.148 150.949ZM210.378 156.609H209.394L209.312 150.516H210.46L210.378 156.609ZM209.886 159.07C209.75 159.07 209.623 159.035 209.505 158.965C209.392 158.895 209.3 158.803 209.23 158.689C209.164 158.572 209.132 158.445 209.136 158.309C209.132 158.176 209.164 158.051 209.23 157.934C209.3 157.816 209.392 157.725 209.505 157.658C209.623 157.592 209.75 157.559 209.886 157.559C210.023 157.559 210.148 157.592 210.261 157.658C210.378 157.725 210.47 157.816 210.537 157.934C210.603 158.051 210.636 158.176 210.636 158.309C210.636 158.445 210.603 158.572 210.537 158.689C210.47 158.803 210.378 158.895 210.261 158.965C210.148 159.035 210.023 159.07 209.886 159.07Z" fill="black"/>
<rect x="17.5" y="16.5" width="231" height="224" stroke="#99A191" stroke-width="5"/>
</svg>
